<?xml version="1.0" encoding="utf-8"?>
<!-- Generator: Adobe Illustrator 21.0.2, SVG Export Plug-In . SVG Version: 6.00 Build 0)  -->
<svg version="1.1" id="Layer_1" xmlns="http://www.w3.org/2000/svg" xmlns:xlink="http://www.w3.org/1999/xlink" x="0px" y="0px"
	 viewBox="0 0 156 27" style="enable-background:new 0 0 156 27;" xml:space="preserve">
<style type="text/css">
	.st0{fill:#FF0000;}
</style>
<path class="st0" d="M7,14.9l-3.9,8.9H0.2l4.3-9.5c-1-0.5-1.8-1.3-2.5-2.3c-0.6-1-0.9-2.4-0.9-4.1c0-1.2,0.2-2.3,0.5-3.2
	C2,3.8,2.5,3,3.1,2.4c0.6-0.6,1.3-1.1,2.2-1.4c0.8-0.3,1.7-0.5,2.6-0.5h3.7v23.1H9.1v-8.9H7z M9.1,2.7H7.8c-0.5,0-1,0.1-1.5,0.3
	C5.8,3.2,5.4,3.4,5,3.8C4.7,4.2,4.4,4.8,4.1,5.4C3.9,6.1,3.8,6.9,3.8,7.9c0,0.9,0.1,1.7,0.3,2.3c0.2,0.6,0.5,1.1,0.8,1.5
	c0.4,0.4,0.8,0.7,1.3,0.8s1,0.2,1.5,0.2h1.3V2.7z"/>
<path d="M23.6,7.5v16.3h-2.5v-7.3h-3.8v7.3h-2.5V7.5h2.5v6.9h3.8V7.5H23.6z M36.5,27h-2.3v-3.2h-7V27H25v-5.3h1
	c0.4-0.9,0.7-1.8,0.9-2.9c0.2-1,0.4-2.1,0.5-3.2c0.1-1.1,0.2-2.2,0.2-3.4c0-1.2,0-2.3,0-3.3V7.5h7.6v14.2h1.3V27z M32.8,9.5h-2.8
	v0.3c0,0.9,0,1.8,0,2.8c0,1-0.1,2.1-0.2,3.1c-0.1,1.1-0.3,2.1-0.5,3.1c-0.2,1-0.5,2-0.8,2.8h4.3V9.5z M47.5,22.7
	c-0.5,0.4-1.1,0.7-1.8,1c-0.7,0.2-1.4,0.4-2.2,0.4c-1.7,0-3-0.7-4-2c-1-1.3-1.5-3.2-1.5-5.7c0-1.3,0.1-2.5,0.3-3.6s0.5-2.1,0.9-2.9
	c0.4-0.8,0.9-1.4,1.5-1.9c0.6-0.5,1.4-0.7,2.2-0.7c0.7,0,1.3,0.1,1.8,0.4c0.6,0.3,1,0.7,1.4,1.3c0.4,0.6,0.7,1.4,0.9,2.3
	c0.2,1,0.3,2.1,0.3,3.5v1.4h-6.8c0,1.9,0.3,3.3,0.8,4.2c0.5,0.9,1.3,1.4,2.3,1.4c0.7,0,1.3-0.1,1.9-0.4s1-0.5,1.3-0.7L47.5,22.7z
	 M43,9.3c-0.8,0-1.3,0.4-1.6,1.3c-0.3,0.9-0.5,2-0.6,3.5h4.2c0-0.7,0-1.3-0.1-1.9c-0.1-0.6-0.2-1.1-0.3-1.5c-0.1-0.4-0.3-0.8-0.6-1
	C43.6,9.4,43.3,9.3,43,9.3z M52.6,15.6v8.1h-2.5V7.5h2.5V15l3.9-7.5H59l-4,7.7l4.6,8.6h-2.7L52.6,15.6z M65.5,24
	c-1.7,0-3.1-0.7-4.1-2.1c-1-1.4-1.5-3.5-1.5-6.3c0-1.3,0.1-2.4,0.4-3.5c0.2-1,0.6-1.9,1.1-2.6c0.5-0.7,1.1-1.3,1.8-1.7
	c0.7-0.4,1.6-0.6,2.5-0.6c0.7,0,1.3,0.1,1.8,0.2c0.5,0.2,0.9,0.4,1.2,0.6l-0.4,2.4c-0.3-0.3-0.7-0.6-1.2-0.8c-0.5-0.2-1-0.3-1.5-0.3
	c-0.9,0-1.6,0.5-2.2,1.5c-0.6,1-0.9,2.6-0.9,4.6c0,2.1,0.2,3.6,0.7,4.8c0.5,1.1,1.2,1.7,2.3,1.7c0.6,0,1.2-0.1,1.6-0.3
	c0.5-0.2,0.8-0.5,1.1-0.7l0.6,1.9c-0.4,0.4-0.9,0.7-1.5,0.9S66.3,24,65.5,24z"/>
<path d="M76.5,23.8c-0.1,0-0.2,0-0.3,0c-0.1,0-0.2,0-0.3,0l-0.2-1.5c0.2,0.1,0.4,0.1,0.8,0.1c0.9,0,1.5-0.4,2-1.1
	c0.5-0.8,0.9-1.8,1.3-3L75,0.6h1.6l4,14.9l3.9-14.9H86l-4.7,17.5c-0.2,0.8-0.5,1.5-0.7,2.2c-0.3,0.7-0.6,1.3-1,1.8s-0.8,0.9-1.3,1.2
	C77.8,23.6,77.2,23.8,76.5,23.8z"/>
<path d="M93.8,23.8v-7.4c-0.2,0.2-0.5,0.4-0.8,0.5c-0.3,0.1-0.6,0.2-0.9,0.4c-0.4,0.1-0.8,0.2-1.3,0.2c-1.1,0-2-0.4-2.7-1.1
	c-0.7-0.8-1-1.9-1-3.5V7.5h1.5v5.3c0,1.2,0.2,2,0.7,2.5c0.4,0.5,1,0.8,1.8,0.8c0.4,0,0.8-0.1,1.2-0.2c0.3-0.1,0.6-0.3,0.9-0.4
	c0.3-0.2,0.5-0.4,0.7-0.6V7.5h1.5v16.3H93.8z"/>
<path d="M99.5,15.9c0,2.3,0.4,4,0.9,5.2c0.6,1.2,1.5,1.8,2.7,1.8c0.5,0,1-0.1,1.4-0.3c0.4-0.2,0.8-0.4,1-0.6
	c0.3-0.2,0.6-0.5,0.8-0.9l0.5,1.2c-0.3,0.4-0.6,0.7-0.9,0.9c-0.3,0.2-0.7,0.4-1.2,0.6c-0.5,0.2-1,0.3-1.7,0.3c-1.7,0-3-0.7-3.8-2.2
	s-1.2-3.6-1.2-6.2c0-1.3,0.1-2.5,0.4-3.6c0.2-1,0.6-1.9,1-2.7c0.4-0.7,0.9-1.3,1.5-1.7c0.6-0.4,1.2-0.6,1.9-0.6
	c0.7,0,1.3,0.2,1.9,0.5c0.6,0.4,1,0.9,1.4,1.6c0.4,0.7,0.6,1.6,0.8,2.7c0.2,1.1,0.2,2.4,0,3.8H99.5z M102.8,8.4
	c-0.9,0-1.6,0.5-2.2,1.6c-0.6,1.1-1,2.6-1,4.6h5.9c0.1-2.2-0.1-3.7-0.6-4.7S103.6,8.4,102.8,8.4z"/>
<path d="M114.3,24.1c-0.8,0-1.4-0.2-2.1-0.6c-0.6-0.4-1.2-1-1.6-1.7s-0.8-1.8-1.1-3c-0.3-1.2-0.4-2.6-0.4-4.3c0-2.3,0.1-4.4,0.3-6.1
	c0.2-1.7,0.6-3.1,1.1-4.2s1.2-1.9,2-2.5c0.8-0.5,1.9-0.8,3.1-0.9c0.7,0,1.3-0.1,1.7-0.2c0.4-0.1,0.7-0.3,1-0.6l0.4,1.2
	c-0.5,0.6-1.6,0.9-3,0.9c-1.6,0-2.8,0.7-3.6,2.1c-0.8,1.3-1.3,3.5-1.5,6.5c0.4-1.1,0.9-1.9,1.6-2.5c0.7-0.6,1.5-0.9,2.4-0.9
	c1.4,0,2.6,0.7,3.4,2.1c0.9,1.4,1.3,3.4,1.3,6.1c0,1.3-0.1,2.5-0.4,3.6s-0.6,2-1.1,2.7c-0.5,0.7-1,1.3-1.6,1.7S115,24.1,114.3,24.1z
	 M114.3,22.8c1,0,1.9-0.6,2.6-1.9c0.7-1.3,1-3,1-5.3c0-2.3-0.3-4-0.9-5.2c-0.6-1.2-1.4-1.8-2.4-1.8c-0.8,0-1.6,0.4-2.3,1.1
	c-0.7,0.7-1.2,1.7-1.6,2.9v2.3c0,2.7,0.3,4.7,1,5.9C112.4,22.1,113.2,22.8,114.3,22.8z"/>
<path d="M129.2,16h-5.6v7.8h-1.5V7.5h1.5v7.2h5.6V7.5h1.5v16.3h-1.5V16z"/>
<path d="M141.8,12.4c0-0.4,0-0.8,0-1.2s0.1-0.7,0.1-1.1h-0.1c-0.1,0.4-0.2,0.7-0.4,1.1c-0.2,0.3-0.3,0.7-0.5,1.1l-5.3,11.5h-1.3V7.5
	h1.4v11.3c0,0.4,0,0.8,0,1.2c0,0.4-0.1,0.7-0.1,1.1h0.1c0.1-0.4,0.2-0.7,0.4-1.1c0.2-0.4,0.3-0.7,0.5-1.1L142,7.5h1.3v16.3h-1.5
	V12.4z"/>
<path d="M148.5,23.8H147V7.5h1.5v7.7l5.5-7.7h1.5l-5.4,7.6l5.8,8.7h-1.7l-5.7-8.4V23.8z"/>
</svg>
